# xmcd CD database file
#
# Track frame offsets:
#	150
#	14132
#	29668
#	42828
#	53072
#	67296
#	80802
#	94987
#	106333
#	120135
#	133852
#	148649
#	162758
#	176383
#	188138
#	199990
#	214000
#	226884
#	239155
#	252422
#	264919
#	277921
#
# Disc length: 3832 seconds
#
# Revision: 0
# Processed by: cddbd v1.5.2PL0 Copyright (c) Steve Scherf et al.
# Submitted via: CDex 1.70beta2
#
DISCID=470ef616
DTITLE=Billie Holiday - Carelessly
DYEAR=1900
DGENRE=Blues
TTITLE0=Carelessly
TTITLE1=I Can't Give You Anything But Love
TTITLE2=I've Got My Love To Keep Me Warm
TTITLE3=Please Keep Me In Your Dreams
TTITLE4=This Years Kisses
TTITLE5=The Mood That I'm In
TTITLE6=(This Is) My Last Affair
TTITLE7=How Could You
TTITLE8=Moanin' Low
TTITLE9=They Can't Take That Away From Me
TTITLE10=Yours And Mine
TTITLE11=Mean To Me
TTITLE12=Easy Living
TTITLE13=Me, Myself And I
TTITLE14=Let's Call The Whole Thing Off
TTITLE15=April In My Heart
TTITLE16=You're So Desirable
TTITLE17=Hello My Darling
TTITLE18=That's All I Ask Of You
TTITLE19=Sugar
TTITLE20=You Go To My Head
TTITLE21=I'm Gonna Lock My Heart
EXTD=
EXTT0=
EXTT1=
EXTT2=
EXTT3=
EXTT4=
EXTT5=
EXTT6=
EXTT7=
EXTT8=
EXTT9=
EXTT10=
EXTT11=
EXTT12=
EXTT13=
EXTT14=
EXTT15=
EXTT16=
EXTT17=
EXTT18=
EXTT19=
EXTT20=
EXTT21=
PLAYORDER=
